<svg width="42" height="50" viewBox="0 0 42 50" fill="none" xmlns="http://www.w3.org/2000/svg">
<rect width="41.6667" height="50" rx="4" fill="#232323"/>
<path d="M21.772 35.252C19.756 35.252 17.956 34.832 16.372 33.992C14.812 33.128 13.588 31.952 12.7 30.464C11.812 28.976 11.368 27.284 11.368 25.388C11.368 23.468 11.812 21.776 12.7 20.312C13.588 18.824 14.812 17.66 16.372 16.82C17.956 15.98 19.756 15.56 21.772 15.56C23.644 15.56 25.288 15.944 26.704 16.712C28.144 17.456 29.236 18.56 29.98 20.024L26.524 22.04C25.948 21.128 25.24 20.456 24.4 20.024C23.584 19.592 22.696 19.376 21.736 19.376C20.632 19.376 19.636 19.616 18.748 20.096C17.86 20.576 17.164 21.272 16.66 22.184C16.156 23.072 15.904 24.14 15.904 25.388C15.904 26.636 16.156 27.716 16.66 28.628C17.164 29.516 17.86 30.2 18.748 30.68C19.636 31.16 20.632 31.4 21.736 31.4C22.696 31.4 23.584 31.184 24.4 30.752C25.24 30.32 25.948 29.648 26.524 28.736L29.98 30.752C29.236 32.192 28.144 33.308 26.704 34.1C25.288 34.868 23.644 35.252 21.772 35.252Z" fill="white"/>
</svg>
